<svg xmlns="http://www.w3.org/2000/svg" xmlns:xlink="http://www.w3.org/1999/xlink" fill="none" viewBox="0 0 204 202"><defs><path id="reuse-0" fill="#404040" d="M102 135.3v27.6l17-13.8-17-13.8Zm0 0v27.6l-17-13.8 17-13.8Z"/><path id="reuse-1" fill="#DB8621" d="M85 121.5V149l17-13.8-17-13.8Z"/><path id="reuse-2" fill="#C87A1E" d="M85 121.5V149l-17-13.8 17-13.8Zm34 0V149l17-13.8-17-13.8Z"/><path id="reuse-3" fill="#DB8621" d="M119 121.5V149l-17-13.8 17-13.8Z"/><path id="reuse-4" fill="#C87A1E" d="M102 107.7v27.6l17-13.8-17-13.8Zm0 0v27.6l-17-13.8 17-13.8Z"/><path id="reuse-5" fill="#DDD" d="M136 52.4v27.7l17-13.9-17-13.8Z"/><path id="reuse-6" fill="#C87A1E" d="M136 52.4v27.7l-17-13.9 17-13.8Zm-68 0v27.7l17-13.8-17-13.8Z"/><path id="reuse-7" fill="#DDD" d="M68 52.5V80L51.2 66.3l17-13.8Z"/><path id="reuse-8" fill="#424242" d="M51.1 38.6v27.7l17-13.9-17-13.8Zm101.8 0v27.7l-17-13.9 17-13.8Z"/><path id="reuse-9" fill="#DB8621" d="M102 80v27.7l17-13.8L102 80Zm0 0v27.7L85 93.9 102 80Z"/><path id="reuse-10" fill="#DB8621" d="M85 93.9v27.6l17-13.8-17-13.8Z"/><path id="reuse-11" fill="#A9671A" d="M85 93.9v27.6l-17-13.8 17-13.8Zm34 0v27.6l17-13.8-17-13.8Z"/><path id="reuse-12" fill="#DB8621" d="M119 93.9v27.6l-17-13.8 17-13.8Z"/><path id="reuse-13" fill="#C87A1E" d="M119 66.3v27.6L136 80l-17-13.8Z"/><path id="reuse-14" fill="#A9671A" d="M119 66.3v27.6L102 80l17-13.8ZM85 66.3v27.6L102 80 85 66.3Z"/><path id="reuse-15" fill="#C87A1E" d="M85 66.3v27.6L68 80l17-13.8Z"/><path id="reuse-16" fill="#A9671A" d="M51.1 93.9v27.6l17-13.8-17-13.8Z"/><path id="reuse-17" fill="#A7A7A7" d="M51.1 93.9v27.6l-17-13.8 17-13.8Zm101.8 0v27.6l17-13.8-17-13.8Z"/><path id="reuse-18" fill="#A9671A" d="M153 93.9v27.6l-17-13.8 17-13.8Z"/><path id="reuse-19" fill="#DB8621" d="M68 80v27.7l17-13.8L68 80Z"/><path id="reuse-20" fill="#A9671A" d="M68 80v27.7L51.2 93.9l17-13.8Zm68 0v27.7l17-13.8L136 80Z"/><path id="reuse-21" fill="#DB8621" d="M136 80v27.7l-17-13.8L136 80Z"/><path id="reuse-22" fill="#C87A1E" d="M153 66.3v27.6L136 80l17-13.8ZM51 66.3v27.6l17-13.8-17-13.8Zm17 41.4v27.6l17-13.8-17-13.8Z"/><path id="reuse-23" fill="#DB8621" d="M68 107.7v27.6l-16.9-13.8 17-13.8Zm68 0v27.6l17-13.8-17-13.8Z"/><path id="reuse-24" fill="#C87A1E" d="M136 107.7v27.6l-17-13.8 17-13.8Z"/><path id="reuse-25" fill="#404040" d="m68 107.7 17 13.8v-13.8H68Zm68 0-17 13.8v-13.8h17Z" opacity=".8"/><path id="reuse-26" fill="#DDD" d="m68 135.3 17 13.8H68v-13.8Zm68 0-17 13.8h17v-13.8Z"/><path id="reuse-27" fill="#C87A1E" d="m152.9 121.5-17 13.8h17v-13.8Zm-101.8 0 17 13.8H51v-13.8Z"/><path id="reuse-28" fill="#DDD" d="m51.1 135.3 17 13.8v-13.8H51Zm17 13.8L85 163v-13.8H68Zm84.8-13.8-17 13.8v-13.8h17Zm-17 13.8L119 163v-13.8h17Z"/><path id="reuse-29" fill="#A7A7A7" d="M85 149.1V163h17l-17-13.8Zm34 0V163h-17l17-13.8Z"/></defs><path fill="#282C34" stroke="#66A88C" stroke-width="3" d="M102 199.6c55.2 0 100-44.2 100-98.8A99.4 99.4 0 0 0 102 2 99.4 99.4 0 0 0 2 100.8a99.4 99.4 0 0 0 100 98.8Z"/><use xlink:href="#reuse-0"/><path fill="#A9671A" d="M102 135.3V149h17l-17-13.8ZM102 135.3V149H85l17-13.8Z"/><use xlink:href="#reuse-1"/><use xlink:href="#reuse-2"/><use xlink:href="#reuse-3"/><use xlink:href="#reuse-4"/><use xlink:href="#reuse-5"/><use xlink:href="#reuse-6"/><use xlink:href="#reuse-7"/><use xlink:href="#reuse-8"/><use xlink:href="#reuse-9"/><use xlink:href="#reuse-10"/><use xlink:href="#reuse-11"/><use xlink:href="#reuse-12"/><use xlink:href="#reuse-13"/><use xlink:href="#reuse-14"/><use xlink:href="#reuse-15"/><use xlink:href="#reuse-16"/><use xlink:href="#reuse-17"/><use xlink:href="#reuse-18"/><use xlink:href="#reuse-19"/><use xlink:href="#reuse-20"/><use xlink:href="#reuse-21"/><use xlink:href="#reuse-22"/><use xlink:href="#reuse-23"/><use xlink:href="#reuse-24"/><use xlink:href="#reuse-25" opacity=".8"/><use xlink:href="#reuse-26"/><use xlink:href="#reuse-27"/><use xlink:href="#reuse-28"/><use xlink:href="#reuse-29"/><use xlink:href="#reuse-0"/><path fill="#A9671A" d="M102 135.3V149H85l17-13.8Zm0 0V149h17l-17-13.8Z"/><use xlink:href="#reuse-1"/><use xlink:href="#reuse-2"/><use xlink:href="#reuse-3"/><use xlink:href="#reuse-4"/><use xlink:href="#reuse-5"/><use xlink:href="#reuse-6"/><use xlink:href="#reuse-7"/><use xlink:href="#reuse-8"/><use xlink:href="#reuse-9"/><use xlink:href="#reuse-10"/><use xlink:href="#reuse-11"/><use xlink:href="#reuse-12"/><use xlink:href="#reuse-13"/><use xlink:href="#reuse-14"/><use xlink:href="#reuse-15"/><use xlink:href="#reuse-16"/><use xlink:href="#reuse-17"/><use xlink:href="#reuse-18"/><use xlink:href="#reuse-19"/><use xlink:href="#reuse-20"/><use xlink:href="#reuse-21"/><use xlink:href="#reuse-22"/><use xlink:href="#reuse-23"/><use xlink:href="#reuse-24"/><use xlink:href="#reuse-25" opacity=".8"/><use xlink:href="#reuse-26"/><use xlink:href="#reuse-27"/><use xlink:href="#reuse-28"/><use xlink:href="#reuse-29"/><path fill="#DDD" d="m169.9 121.5-17 13.8v-13.8h17Zm-135.8 0 17 13.8v-13.8h-17ZM152.9 121.5h17v-13.8l-17 13.8Zm-101.8 0h-17v-13.8l17 13.8Z"/></svg>