<svg viewBox="0 0 55.307 51.255" xmlns="http://www.w3.org/2000/svg">
  <title>vulpis development logo</title>
  <g opacity=".999">
    <path d="M27.649 39.86v11.39l6.913-5.697zm0 0v11.39l-6.914-5.697z" fill="#404040"/>
    <g fill="#a9671a">
      <path d="M27.649 39.86v5.693h6.913z"/>
      <path d="M34.56 39.86v5.693h-6.913z"/>
      <path d="M27.649 39.86v5.693h-6.914z"/>
    </g>
    <path d="M20.734 34.164v11.39l6.914-5.696z" fill="#db8621"/>
    <path d="M20.734 34.164v11.39l-6.913-5.696zm13.829 0v11.39l6.913-5.696z" fill="#c87a1e"/>
    <path d="M34.563 34.164v11.39l-6.914-5.696z" fill="#db8621"/>
    <path d="M27.655 28.47v11.39l6.914-5.696zm0 0v11.39l-6.913-5.696z" fill="#c87a1e"/>
    <path d="M41.477 5.687v11.39l6.913-5.696z" fill="#ddd"/>
    <path d="M41.477 5.687v11.39l-6.913-5.696zM13.82 5.69v11.39l6.913-5.696z" fill="#c87a1e"/>
    <path d="M13.82 5.69v11.39l-6.913-5.696z" fill="#ddd"/>
    <path d="M6.906.008v11.39l6.913-5.696zM48.399-.02v11.391l-6.913-5.696z" fill="#424242"/>
    <path d="M27.649 17.078v11.39l6.913-5.696zm0 0v11.39l-6.914-5.696z" fill="#db8621"/>
    <path d="M20.734 22.773v11.39l6.914-5.696z" fill="#db8621"/>
    <path d="M20.734 22.773v11.39l-6.913-5.696zm13.829.003v11.39l6.913-5.696z" fill="#a9671a"/>
    <path d="M34.563 22.776v11.39l-6.914-5.696z" fill="#db8621"/>
    <path d="M34.563 11.385v11.39l6.913-5.696z" fill="#c87a1e"/>
    <path d="M34.563 11.385v11.39l-6.914-5.696zm-13.829 0v11.39l6.914-5.696z" fill="#a9671a"/>
    <path d="M20.734 11.385v11.39l-6.913-5.696z" fill="#c87a1e"/>
    <path d="M6.902 22.773v11.39l6.913-5.696z" fill="#a9671a"/>
    <path d="M6.902 22.773v11.39l-6.914-5.696zm41.489 0v11.39l6.914-5.696z" fill="#a7a7a7"/>
    <path d="M48.391 22.773v11.39l-6.913-5.696z" fill="#a9671a"/>
    <path d="M13.82 17.078v11.39l6.913-5.696z" fill="#db8621"/>
    <path d="M13.82 17.078v11.39l-6.913-5.696zm27.657-.003v11.39l6.913-5.696z" fill="#a9671a"/>
    <path d="M41.477 17.075v11.39l-6.913-5.696z" fill="#db8621"/>
    <path d="M48.391 11.383v11.39l-6.913-5.696zm-41.479.005v11.39l6.914-5.696zM13.82 28.469v11.39l6.913-5.696z" fill="#c87a1e"/>
    <path d="M13.82 28.469v11.39l-6.913-5.696zm27.657 0v11.39l6.913-5.696z" fill="#db8621"/>
    <path d="M41.477 28.469v11.39l-6.913-5.696z" fill="#c87a1e"/>
    <path d="m13.827 28.47 6.913 5.694-.01-5.694zm27.653 0-6.913 5.694.01-5.694z" fill="#404040" opacity=".8"/>
    <path d="m13.827 39.861 6.913 5.694h-6.913zm27.653 0-6.913 5.694h6.914z" fill="#ddd"/>
    <path d="m48.395 34.163-6.913 5.694h6.913zm-41.48 0 6.914 5.694H6.915z" fill="#c87a1e"/>
    <g fill="#ddd">
      <path d="m6.915 39.858 6.914 5.697V39.86z"/>
      <path d="m13.827 45.551 6.913 5.696v-5.694zm34.568-5.695-6.913 5.696v-5.694zm-6.915 5.695-6.913 5.696v-5.694z"/>
    </g>
    <path d="M20.74 45.551v5.696h6.914z" fill="#a7a7a7"/>
    <path d="M34.567 45.551v5.696h-6.914z" fill="#a7a7a7"/>
    <path d="m55.307 34.163-6.914 5.696v-5.694zM0 34.163l6.914 5.696v-5.694zm48.395 0 6.913-.002v-5.694zm-41.48 0-6.913-.002v-5.694z" fill="#ddd"/>
    <path d="M27.649 39.86v11.39l6.913-5.697zm0 0v11.39l-6.914-5.697z" fill="#404040"/>
    <g fill="#a9671a">
      <path d="M27.649 39.86v5.693h6.913z"/>
      <path d="M34.56 39.86v5.693h-6.913z"/>
      <path d="M27.649 39.86v5.693h-6.914z"/>
    </g>
    <path d="M20.734 34.164v11.39l6.914-5.696z" fill="#db8621"/>
    <path d="M20.734 34.164v11.39l-6.913-5.696zm13.829 0v11.39l6.913-5.696z" fill="#c87a1e"/>
    <path d="M34.563 34.164v11.39l-6.914-5.696z" fill="#db8621"/>
    <path d="M27.655 28.47v11.39l6.914-5.696zm0 0v11.39l-6.913-5.696z" fill="#c87a1e"/>
    <path d="M41.477 5.687v11.39l6.913-5.696z" fill="#ddd"/>
    <path d="M41.477 5.687v11.39l-6.913-5.696zM13.82 5.69v11.39l6.913-5.696z" fill="#c87a1e"/>
    <path d="M13.82 5.69v11.39l-6.913-5.696z" fill="#ddd"/>
    <path d="M6.906.008v11.39l6.913-5.696zM48.399-.02v11.391l-6.913-5.696z" fill="#424242"/>
    <path d="M27.649 17.078v11.39l6.913-5.696zm0 0v11.39l-6.914-5.696z" fill="#db8621"/>
    <path d="M20.734 22.773v11.39l6.914-5.696z" fill="#db8621"/>
    <path d="M20.734 22.773v11.39l-6.913-5.696zM34.563 22.776v11.39l6.913-5.696z" fill="#a9671a"/>
    <path d="M34.563 22.776v11.39l-6.914-5.696z" fill="#db8621"/>
    <path d="M34.563 11.385v11.39l6.913-5.696z" fill="#c87a1e"/>
    <path d="M34.563 11.385v11.39l-6.914-5.696zM20.734 11.385v11.39l6.914-5.696z" fill="#a9671a"/>
    <path d="M20.734 11.385v11.39l-6.913-5.696z" fill="#c87a1e"/>
    <path d="M6.902 22.773v11.39l6.913-5.696z" fill="#a9671a"/>
    <path d="M6.902 22.773v11.39l-6.914-5.696zM48.391 22.773v11.39l6.914-5.696z" fill="#a7a7a7"/>
    <path d="M48.391 22.773v11.39l-6.913-5.696z" fill="#a9671a"/>
    <path d="M13.82 17.078v11.39l6.913-5.696z" fill="#db8621"/>
    <path d="M13.82 17.078v11.39l-6.913-5.696zM41.477 17.075v11.39l6.913-5.696z" fill="#a9671a"/>
    <path d="M41.477 17.075v11.39l-6.913-5.696z" fill="#db8621"/>
    <path d="M48.391 11.383v11.39l-6.913-5.696zm-41.479.005v11.39l6.914-5.696zM13.82 28.469v11.39l6.913-5.696z" fill="#c87a1e"/>
    <path d="M13.82 28.469v11.39l-6.913-5.696zM41.477 28.469v11.39l6.913-5.696z" fill="#db8621"/>
    <path d="M41.477 28.469v11.39l-6.913-5.696z" fill="#c87a1e"/>
    <path d="m13.827 28.47 6.913 5.694-.01-5.694zm27.653 0-6.913 5.694.01-5.694z" fill="#404040" opacity=".8"/>
    <path d="m13.827 39.861 6.913 5.694h-6.913zm27.653 0-6.913 5.694h6.914z" fill="#ddd"/>
    <path d="m48.395 34.163-6.913 5.694h6.913zm-41.48 0 6.914 5.694H6.915z" fill="#c87a1e"/>
    <g fill="#ddd">
      <path d="m6.915 39.858 6.914 5.697V39.86z"/>
      <path d="m13.827 45.551 6.913 5.696v-5.694zm34.568-5.695-6.913 5.696v-5.694zm-6.915 5.695-6.913 5.696v-5.694z"/>
    </g>
    <path d="M20.74 45.551v5.696h6.914z" fill="#a7a7a7"/>
    <path d="M34.567 45.551v5.696h-6.914z" fill="#a7a7a7"/>
    <path d="m55.307 34.163-6.914 5.696v-5.694zM0 34.163l6.914 5.696v-5.694zm48.395 0 6.913-.002v-5.694zm-41.48 0-6.913-.002v-5.694z" fill="#ddd"/>
  </g>
</svg>
