<svg version="1.1" viewBox="0 0 55.307 51.255" xmlns="http://www.w3.org/2000/svg">
 <title>vulpis web development logo</title>
 <g transform="translate(-70.071 -117.67)" opacity=".999">
  <g transform="matrix(2.7329 0 0 2.7329 -19.846 -49.24)">
   <g transform="matrix(2.2972 0 0 2.0839 -114.42 -86.168)">
    <path d="m68.535 77.656v2l1.1012-1.0002z" fill="#404040"/>
    <path d="m68.535 77.656v2l-1.1012-1.0002z" fill="#404040"/>
    <g fill="#a9671a">
     <path d="m68.535 77.656v0.99981l1.1012 1e-6z"/>
     <path d="m69.636 77.656v0.99981l-1.1012 1e-6z"/>
     <path d="m68.535 77.656v0.99981l-1.1012 1e-6z"/>
    </g>
   </g>
   <g transform="matrix(2.2972 0 0 2.0839 -116.95 -88.252)">
    <path d="m68.535 77.656v2l1.1012-1.0002z" fill="#db8621"/>
    <path d="m68.535 77.656v2l-1.1012-1.0002z" fill="#c87a1e"/>
   </g>
   <g transform="matrix(2.2972 0 0 2.0839 -111.89 -88.252)">
    <path d="m68.535 77.656v2l1.1012-1.0002z" fill="#c87a1e"/>
    <path d="m68.535 77.656v2l-1.1012-1.0002z" fill="#db8621"/>
   </g>
   <path d="m43.021 71.492v4.1678l2.5297-2.0843z" fill="#c87a1e"/>
   <path d="m43.021 71.492v4.1678l-2.5297-2.0843z" fill="#c87a1e"/>
   <g transform="matrix(2.2972 0 0 2.0839 -109.36 -98.672)">
    <path d="m68.535 77.656v2l1.1012-1.0002z" fill="#ddd"/>
    <path d="m68.535 77.656v2l-1.1012-1.0002z" fill="#c87a1e"/>
   </g>
   <g transform="matrix(2.2972 0 0 2.0839 -119.48 -98.671)">
    <path d="m68.535 77.656v2l1.1012-1.0002z" fill="#c87a1e"/>
    <path d="m68.535 77.656v2l-1.1012-1.0002z" fill="#ddd"/>
   </g>
   <g transform="matrix(2.2972 0 0 2.0839 -122.01 -100.75)" fill="#424242">
    <path d="m68.535 77.656v2l1.1012-1.0002z" fill="#424242"/>
   </g>
   <g transform="matrix(-2.2972 0 0 2.0839 208.05 -100.76)" fill="#424242">
    <path d="m68.535 77.656v2l1.1012-1.0002z" fill="#424242"/>
   </g>
   <g transform="matrix(2.2972 0 0 2.0839 -114.42 -94.504)" fill="#db8621">
    <path d="m68.535 77.656v2l1.1012-1.0002z"/>
    <path d="m68.535 77.656v2l-1.1012-1.0002z"/>
   </g>
   <g transform="matrix(2.2972 0 0 2.0839 -116.95 -92.42)">
    <path d="m68.535 77.656v2l1.1012-1.0002z" fill="#db8621"/>
    <path d="m68.535 77.656v2l-1.1012-1.0002z" fill="#a9671a"/>
   </g>
   <g transform="matrix(2.2972 0 0 2.0839 -111.89 -92.419)">
    <path d="m68.535 77.656v2l1.1012-1.0002z" fill="#a9671a"/>
    <path d="m68.535 77.656v2l-1.1012-1.0002z" fill="#db8621"/>
   </g>
   <g transform="matrix(2.2972 0 0 2.0839 -111.89 -96.587)">
    <path d="m68.535 77.656v2l1.1012-1.0002z" fill="#c87a1e"/>
    <path d="m68.535 77.656v2l-1.1012-1.0002z" fill="#a9671a"/>
   </g>
   <g transform="matrix(2.2972 0 0 2.0839 -116.95 -96.587)">
    <path d="m68.535 77.656v2l1.1012-1.0002z" fill="#a9671a"/>
    <path d="m68.535 77.656v2l-1.1012-1.0002z" fill="#c87a1e"/>
   </g>
   <g transform="matrix(2.2972 0 0 2.0839 -120.16 -93.214)">
    <path d="m67.729 78.037v2l1.1012-1.0002z" fill="#a9671a"/>
    <path d="m67.729 78.037v2l-1.1012-1.0002z" fill="#a7a7a7"/>
   </g>
   <g transform="matrix(2.2972 0 0 2.0839 -106.83 -92.42)">
    <path d="m68.535 77.656v2l1.1012-1.0002z" fill="#a7a7a7"/>
    <path d="m68.535 77.656v2l-1.1012-1.0002z" fill="#a9671a"/>
   </g>
   <g transform="matrix(2.2972 0 0 2.0839 -119.48 -94.504)">
    <path d="m68.535 77.656v2l1.1012-1.0002z" fill="#db8621"/>
    <path d="m68.535 77.656v2l-1.1012-1.0002z" fill="#a9671a"/>
   </g>
   <g transform="matrix(2.2972 0 0 2.0839 -109.36 -94.505)">
    <path d="m68.535 77.656v2l1.1012-1.0002z" fill="#a9671a"/>
    <path d="m68.535 77.656v2l-1.1012-1.0002z" fill="#db8621"/>
   </g>
   <g transform="matrix(2.2972 0 0 2.0839 -106.83 -96.588)" fill="#c87a1e">
    <path d="m68.535 77.656v2l-1.1012-1.0002z"/>
    <path d="m61.928 77.657v2l1.1012-1.0002z"/>
   </g>
   <g transform="matrix(2.2972 0 0 2.0839 -119.48 -90.336)">
    <path d="m68.535 77.656v2l1.1012-1.0002z" fill="#c87a1e" opacity="1"/>
    <path d="m68.535 77.656v2l-1.1012-1.0002z" fill="#db8621"/>
   </g>
   <g transform="matrix(2.2972 0 0 2.0839 -109.36 -90.336)">
    <path d="m68.535 77.656v2l1.1012-1.0002z" fill="#db8621"/>
    <path d="m68.535 77.656v2l-1.1012-1.0002z" fill="#c87a1e" opacity="1"/>
   </g>
   <path d="m37.961 71.492 2.5297 2.0835-0.0034-2.0835z" fill="#404040" opacity=".8"/>
   <path d="m48.08 71.492-2.5297 2.0835 0.0034-2.0835z" fill="#404040" opacity=".8"/>
   <path d="m37.961 75.66 2.5297 2.0835-2.5297-2e-6z" fill="#ddd"/>
   <path d="m48.08 75.66-2.5297 2.0835 2.5297-2e-6z" fill="#ddd"/>
   <path d="m50.61 73.575-2.5297 2.0835 2.5297-2e-6z" fill="#c87a1e"/>
   <path d="m35.432 73.575 2.5297 2.0835-2.5297-2e-6z" fill="#c87a1e"/>
   <g fill="#ddd">
    <path d="m35.432 75.659 2.5297 2.0843v-2.0835z"/>
    <path d="m37.961 77.742 2.5297 2.0843v-2.0835z"/>
    <path d="m50.61 75.658-2.5297 2.0843v-2.0835z"/>
    <path d="m48.08 77.742-2.5297 2.0843v-2.0835z"/>
   </g>
   <path d="m40.491 77.742 8e-6 2.0843h2.5297z" fill="#a7a7a7"/>
   <path d="m45.55 77.742-8e-6 2.0843h-2.5297z" fill="#a7a7a7"/>
   <g fill="#ddd">
    <path d="m53.139 73.575-2.5297 2.0843v-2.0835z"/>
    <path d="m32.902 73.575 2.5297 2.0843v-2.0835z"/>
    <path d="m50.61 73.575 2.5297-7.93e-4 -1.1e-5 -2.0835z"/>
    <path d="m35.432 73.575-2.5297-7.93e-4 1.1e-5 -2.0835z"/>
   </g>
   <g transform="matrix(2.2972 0 0 2.0839 -114.42 -86.168)">
    <path d="m68.535 77.656v2l1.1012-1.0002z" fill="#404040"/>
    <path d="m68.535 77.656v2l-1.1012-1.0002z" fill="#404040"/>
    <g fill="#a9671a">
     <path d="m68.535 77.656v0.99981l1.1012 1e-6z"/>
     <path d="m69.636 77.656v0.99981l-1.1012 1e-6z"/>
     <path d="m68.535 77.656v0.99981l-1.1012 1e-6z"/>
    </g>
   </g>
   <g transform="matrix(2.2972 0 0 2.0839 -116.95 -88.252)">
    <path d="m68.535 77.656v2l1.1012-1.0002z" fill="#db8621"/>
    <path d="m68.535 77.656v2l-1.1012-1.0002z" fill="#c87a1e"/>
   </g>
   <g transform="matrix(2.2972 0 0 2.0839 -111.89 -88.252)">
    <path d="m68.535 77.656v2l1.1012-1.0002z" fill="#c87a1e"/>
    <path d="m68.535 77.656v2l-1.1012-1.0002z" fill="#db8621"/>
   </g>
   <path d="m43.021 71.492v4.1678l2.5297-2.0843z" fill="#c87a1e"/>
   <path d="m43.021 71.492v4.1678l-2.5297-2.0843z" fill="#c87a1e"/>
   <g transform="matrix(2.2972 0 0 2.0839 -109.36 -98.672)">
    <path d="m68.535 77.656v2l1.1012-1.0002z" fill="#ddd"/>
    <path d="m68.535 77.656v2l-1.1012-1.0002z" fill="#c87a1e"/>
   </g>
   <g transform="matrix(2.2972 0 0 2.0839 -119.48 -98.671)">
    <path d="m68.535 77.656v2l1.1012-1.0002z" fill="#c87a1e"/>
    <path d="m68.535 77.656v2l-1.1012-1.0002z" fill="#ddd"/>
   </g>
   <g transform="matrix(2.2972 0 0 2.0839 -122.01 -100.75)" fill="#424242">
    <path d="m68.535 77.656v2l1.1012-1.0002z" fill="#424242"/>
   </g>
   <g transform="matrix(-2.2972 0 0 2.0839 208.05 -100.76)" fill="#424242">
    <path d="m68.535 77.656v2l1.1012-1.0002z" fill="#424242"/>
   </g>
   <g transform="matrix(2.2972 0 0 2.0839 -114.42 -94.504)" fill="#db8621">
    <path d="m68.535 77.656v2l1.1012-1.0002z"/>
    <path d="m68.535 77.656v2l-1.1012-1.0002z"/>
   </g>
   <g transform="matrix(2.2972 0 0 2.0839 -116.95 -92.42)">
    <path d="m68.535 77.656v2l1.1012-1.0002z" fill="#db8621"/>
    <path d="m68.535 77.656v2l-1.1012-1.0002z" fill="#a9671a"/>
   </g>
   <g transform="matrix(2.2972 0 0 2.0839 -111.89 -92.419)">
    <path d="m68.535 77.656v2l1.1012-1.0002z" fill="#a9671a"/>
    <path d="m68.535 77.656v2l-1.1012-1.0002z" fill="#db8621"/>
   </g>
   <g transform="matrix(2.2972 0 0 2.0839 -111.89 -96.587)">
    <path d="m68.535 77.656v2l1.1012-1.0002z" fill="#c87a1e"/>
    <path d="m68.535 77.656v2l-1.1012-1.0002z" fill="#a9671a"/>
   </g>
   <g transform="matrix(2.2972 0 0 2.0839 -116.95 -96.587)">
    <path d="m68.535 77.656v2l1.1012-1.0002z" fill="#a9671a"/>
    <path d="m68.535 77.656v2l-1.1012-1.0002z" fill="#c87a1e"/>
   </g>
   <g transform="matrix(2.2972 0 0 2.0839 -120.16 -93.214)">
    <path d="m67.729 78.037v2l1.1012-1.0002z" fill="#a9671a"/>
    <path d="m67.729 78.037v2l-1.1012-1.0002z" fill="#a7a7a7"/>
   </g>
   <g transform="matrix(2.2972 0 0 2.0839 -106.83 -92.42)">
    <path d="m68.535 77.656v2l1.1012-1.0002z" fill="#a7a7a7"/>
    <path d="m68.535 77.656v2l-1.1012-1.0002z" fill="#a9671a"/>
   </g>
   <g transform="matrix(2.2972 0 0 2.0839 -119.48 -94.504)">
    <path d="m68.535 77.656v2l1.1012-1.0002z" fill="#db8621"/>
    <path d="m68.535 77.656v2l-1.1012-1.0002z" fill="#a9671a"/>
   </g>
   <g transform="matrix(2.2972 0 0 2.0839 -109.36 -94.505)">
    <path d="m68.535 77.656v2l1.1012-1.0002z" fill="#a9671a"/>
    <path d="m68.535 77.656v2l-1.1012-1.0002z" fill="#db8621"/>
   </g>
   <g transform="matrix(2.2972 0 0 2.0839 -106.83 -96.588)" fill="#c87a1e">
    <path d="m68.535 77.656v2l-1.1012-1.0002z"/>
    <path d="m61.928 77.657v2l1.1012-1.0002z"/>
   </g>
   <g transform="matrix(2.2972 0 0 2.0839 -119.48 -90.336)">
    <path d="m68.535 77.656v2l1.1012-1.0002z" fill="#c87a1e" opacity="1"/>
    <path d="m68.535 77.656v2l-1.1012-1.0002z" fill="#db8621"/>
   </g>
   <g transform="matrix(2.2972 0 0 2.0839 -109.36 -90.336)">
    <path d="m68.535 77.656v2l1.1012-1.0002z" fill="#db8621"/>
    <path d="m68.535 77.656v2l-1.1012-1.0002z" fill="#c87a1e" opacity="1"/>
   </g>
   <path d="m37.961 71.492 2.5297 2.0835-0.0034-2.0835z" fill="#404040" opacity=".8"/>
   <path d="m48.08 71.492-2.5297 2.0835 0.0034-2.0835z" fill="#404040" opacity=".8"/>
   <path d="m37.961 75.66 2.5297 2.0835-2.5297-2e-6z" fill="#ddd"/>
   <path d="m48.08 75.66-2.5297 2.0835 2.5297-2e-6z" fill="#ddd"/>
   <path d="m50.61 73.575-2.5297 2.0835 2.5297-2e-6z" fill="#c87a1e"/>
   <path d="m35.432 73.575 2.5297 2.0835-2.5297-2e-6z" fill="#c87a1e"/>
   <g fill="#ddd">
    <path d="m35.432 75.659 2.5297 2.0843v-2.0835z"/>
    <path d="m37.961 77.742 2.5297 2.0843v-2.0835z"/>
    <path d="m50.61 75.658-2.5297 2.0843v-2.0835z"/>
    <path d="m48.08 77.742-2.5297 2.0843v-2.0835z"/>
   </g>
   <path d="m40.491 77.742 8e-6 2.0843h2.5297z" fill="#a7a7a7"/>
   <path d="m45.55 77.742-8e-6 2.0843h-2.5297z" fill="#a7a7a7"/>
   <g fill="#ddd">
    <path d="m53.139 73.575-2.5297 2.0843v-2.0835z"/>
    <path d="m32.902 73.575 2.5297 2.0843v-2.0835z"/>
    <path d="m50.61 73.575 2.5297-7.93e-4 -1.1e-5 -2.0835z"/>
    <path d="m35.432 73.575-2.5297-7.93e-4 1.1e-5 -2.0835z"/>
   </g>
  </g>
 </g>
</svg>
