<svg version="1.1" viewBox="0 0 25.689 25.689" xmlns="http://www.w3.org/2000/svg">
<title>vulpis web development logo in green circle</title>
 <g transform="translate(-27.816 -.90832)">
  <g transform="translate(-28.972 -56.792)" opacity=".999">
   <circle transform="translate(28.972 56.792)" cx="40.661" cy="13.753" r="12.844" fill="#2c4e3e" fill-opacity=".98824" fill-rule="evenodd" opacity=".8"/>
   <g transform="matrix(1.9787 0 0 1.7949 -65.975 -64.356)">
    <path d="m68.535 77.656v2l1.1012-1.0002z" fill="#404040"/>
    <path d="m68.535 77.656v2l-1.1012-1.0002z" fill="#404040"/>
    <g fill="#a9671a">
     <path d="m68.535 77.656v0.99981l1.1012 1e-6z"/>
     <path d="m69.636 77.656v0.99981l-1.1012 1e-6z"/>
     <path d="m68.535 77.656v0.99981l-1.1012 1e-6z"/>
    </g>
   </g>
   <g transform="matrix(1.9787 0 0 1.7949 -68.154 -66.151)">
    <path d="m68.535 77.656v2l1.1012-1.0002z" fill="#db8621"/>
    <path d="m68.535 77.656v2l-1.1012-1.0002z" fill="#c87a1e"/>
   </g>
   <g transform="matrix(1.9787 0 0 1.7949 -63.796 -66.151)">
    <path d="m68.535 77.656v2l1.1012-1.0002z" fill="#c87a1e"/>
    <path d="m68.535 77.656v2l-1.1012-1.0002z" fill="#db8621"/>
   </g>
   <path d="m69.633 71.441v3.5899l2.1789-1.7953z" fill="#c87a1e"/>
   <path d="m69.633 71.441v3.5899l-2.1789-1.7953z" fill="#c87a1e"/>
   <g transform="matrix(1.9787 0 0 1.7949 -61.617 -75.126)">
    <path d="m68.535 77.656v2l1.1012-1.0002z" fill="#ddd"/>
    <path d="m68.535 77.656v2l-1.1012-1.0002z" fill="#c87a1e"/>
   </g>
   <g transform="matrix(1.9787 0 0 1.7949 -70.333 -75.125)">
    <path d="m68.535 77.656v2l1.1012-1.0002z" fill="#c87a1e"/>
    <path d="m68.535 77.656v2l-1.1012-1.0002z" fill="#ddd"/>
   </g>
   <g transform="matrix(1.9787 0 0 1.7949 -72.512 -76.92)" fill="#424242">
    <path d="m68.535 77.656v2l1.1012-1.0002z" fill="#424242"/>
   </g>
   <g transform="matrix(-1.9787 0 0 1.7949 211.78 -76.92)" fill="#424242">
    <path d="m68.535 77.656v2l1.1012-1.0002z" fill="#424242"/>
   </g>
   <g transform="matrix(1.9787 0 0 1.7949 -65.975 -71.536)" fill="#db8621">
    <path d="m68.535 77.656v2l1.1012-1.0002z"/>
    <path d="m68.535 77.656v2l-1.1012-1.0002z"/>
   </g>
   <g transform="matrix(1.9787 0 0 1.7949 -68.154 -69.741)">
    <path d="m68.535 77.656v2l1.1012-1.0002z" fill="#db8621"/>
    <path d="m68.535 77.656v2l-1.1012-1.0002z" fill="#a9671a"/>
   </g>
   <g transform="matrix(1.9787 0 0 1.7949 -63.796 -69.741)">
    <path d="m68.535 77.656v2l1.1012-1.0002z" fill="#a9671a"/>
    <path d="m68.535 77.656v2l-1.1012-1.0002z" fill="#db8621"/>
   </g>
   <g transform="matrix(1.9787 0 0 1.7949 -63.796 -73.33)">
    <path d="m68.535 77.656v2l1.1012-1.0002z" fill="#c87a1e"/>
    <path d="m68.535 77.656v2l-1.1012-1.0002z" fill="#a9671a"/>
   </g>
   <g transform="matrix(1.9787 0 0 1.7949 -68.154 -73.33)">
    <path d="m68.535 77.656v2l1.1012-1.0002z" fill="#a9671a"/>
    <path d="m68.535 77.656v2l-1.1012-1.0002z" fill="#c87a1e"/>
   </g>
   <g transform="matrix(1.9787 0 0 1.7949 -70.916 -70.425)">
    <path d="m67.729 78.037v2l1.1012-1.0002z" fill="#a9671a"/>
    <path d="m67.729 78.037v2l-1.1012-1.0002z" fill="#a7a7a7"/>
   </g>
   <g transform="matrix(1.9787 0 0 1.7949 -59.438 -69.741)">
    <path d="m68.535 77.656v2l1.1012-1.0002z" fill="#a7a7a7"/>
    <path d="m68.535 77.656v2l-1.1012-1.0002z" fill="#a9671a"/>
   </g>
   <g transform="matrix(1.9787 0 0 1.7949 -70.333 -71.536)">
    <path d="m68.535 77.656v2l1.1012-1.0002z" fill="#db8621"/>
    <path d="m68.535 77.656v2l-1.1012-1.0002z" fill="#a9671a"/>
   </g>
   <g transform="matrix(1.9787 0 0 1.7949 -61.617 -71.536)">
    <path d="m68.535 77.656v2l1.1012-1.0002z" fill="#a9671a"/>
    <path d="m68.535 77.656v2l-1.1012-1.0002z" fill="#db8621"/>
   </g>
   <g transform="matrix(1.9787 0 0 1.7949 -59.438 -73.331)" fill="#c87a1e">
    <path d="m68.535 77.656v2l-1.1012-1.0002z"/>
    <path d="m61.928 77.657v2l1.1012-1.0002z"/>
   </g>
   <g transform="matrix(1.9787 0 0 1.7949 -70.333 -67.946)">
    <path d="m68.535 77.656v2l1.1012-1.0002z" fill="#c87a1e" opacity="1"/>
    <path d="m68.535 77.656v2l-1.1012-1.0002z" fill="#db8621"/>
   </g>
   <g transform="matrix(1.9787 0 0 1.7949 -61.617 -67.946)">
    <path d="m68.535 77.656v2l1.1012-1.0002z" fill="#db8621"/>
    <path d="m68.535 77.656v2l-1.1012-1.0002z" fill="#c87a1e" opacity="1"/>
   </g>
   <g>
    <path d="m65.275 71.441 2.1789 1.7946-0.0029-1.7946z" fill="#404040" opacity=".8"/>
    <path d="m73.991 71.441-2.1789 1.7946 0.0029-1.7946z" fill="#404040" opacity=".8"/>
    <path d="m65.275 75.031 2.1789 1.7946-2.1789-2e-6z" fill="#ddd"/>
    <path d="m73.991 75.031-2.1789 1.7946 2.1789-2e-6z" fill="#ddd"/>
    <path d="m76.17 73.236-2.1789 1.7946 2.1789-2e-6z" fill="#c87a1e"/>
    <path d="m63.096 73.236 2.1789 1.7946-2.1789-2e-6z" fill="#c87a1e"/>
   </g>
   <g fill="#ddd">
    <path d="m63.096 75.031 2.1789 1.7953v-1.7946z"/>
    <path d="m65.275 76.825 2.1789 1.7953v-1.7946z"/>
    <path d="m76.17 75.03-2.1789 1.7953v-1.7946z"/>
    <path d="m73.991 76.825-2.1789 1.7953v-1.7946z"/>
   </g>
   <path d="m67.454 76.825 7e-6 1.7953h2.1789z" fill="#a7a7a7"/>
   <path d="m71.812 76.825-7e-6 1.7953h-2.1789z" fill="#a7a7a7"/>
   <g fill="#ddd">
    <path d="m78.349 73.235-2.1789 1.7953v-1.7946z"/>
    <path d="m60.917 73.235 2.1789 1.7953v-1.7946z"/>
    <path d="m76.17 73.236 2.1789-6.83e-4 -9e-6 -1.7946z"/>
    <path d="m63.096 73.236-2.1789-6.83e-4 1e-5 -1.7946z"/>
   </g>
   <g transform="matrix(1.9787 0 0 1.7949 -65.975 -64.356)">
    <path d="m68.535 77.656v2l1.1012-1.0002z" fill="#404040"/>
    <path d="m68.535 77.656v2l-1.1012-1.0002z" fill="#404040"/>
    <g fill="#a9671a">
     <path d="m68.535 77.656v0.99981l1.1012 1e-6z"/>
     <path d="m69.636 77.656v0.99981l-1.1012 1e-6z"/>
     <path d="m68.535 77.656v0.99981l-1.1012 1e-6z"/>
     <path d="m68.535 77.656v0.99981l1.1012 1e-6z"/>
     <path d="m68.535 77.656v0.99981l-1.1012 1e-6z"/>
    </g>
   </g>
   <g transform="matrix(1.9787 0 0 1.7949 -68.154 -66.151)">
    <path d="m68.535 77.656v2l1.1012-1.0002z" fill="#db8621"/>
    <path d="m68.535 77.656v2l-1.1012-1.0002z" fill="#c87a1e"/>
   </g>
   <g transform="matrix(1.9787 0 0 1.7949 -63.796 -66.151)">
    <path d="m68.535 77.656v2l1.1012-1.0002z" fill="#c87a1e"/>
    <path d="m68.535 77.656v2l-1.1012-1.0002z" fill="#db8621"/>
   </g>
   <path d="m69.633 71.441v3.5899l2.1789-1.7953z" fill="#c87a1e"/>
   <path d="m69.633 71.441v3.5899l-2.1789-1.7953z" fill="#c87a1e"/>
   <g transform="matrix(1.9787 0 0 1.7949 -61.617 -75.126)">
    <path d="m68.535 77.656v2l1.1012-1.0002z" fill="#ddd"/>
    <path d="m68.535 77.656v2l-1.1012-1.0002z" fill="#c87a1e"/>
   </g>
   <g transform="matrix(1.9787 0 0 1.7949 -70.333 -75.125)">
    <path d="m68.535 77.656v2l1.1012-1.0002z" fill="#c87a1e"/>
    <path d="m68.535 77.656v2l-1.1012-1.0002z" fill="#ddd"/>
   </g>
   <g transform="matrix(1.9787 0 0 1.7949 -72.512 -76.92)" fill="#424242">
    <path d="m68.535 77.656v2l1.1012-1.0002z" fill="#424242"/>
   </g>
   <g transform="matrix(-1.9787 0 0 1.7949 211.78 -76.92)" fill="#424242">
    <path d="m68.535 77.656v2l1.1012-1.0002z" fill="#424242"/>
   </g>
   <g transform="matrix(1.9787 0 0 1.7949 -65.975 -71.536)" fill="#db8621">
    <path d="m68.535 77.656v2l1.1012-1.0002z"/>
    <path d="m68.535 77.656v2l-1.1012-1.0002z"/>
   </g>
   <g transform="matrix(1.9787 0 0 1.7949 -68.154 -69.741)">
    <path d="m68.535 77.656v2l1.1012-1.0002z" fill="#db8621"/>
    <path d="m68.535 77.656v2l-1.1012-1.0002z" fill="#a9671a"/>
   </g>
   <g transform="matrix(1.9787 0 0 1.7949 -63.796 -69.741)">
    <path d="m68.535 77.656v2l1.1012-1.0002z" fill="#a9671a"/>
    <path d="m68.535 77.656v2l-1.1012-1.0002z" fill="#db8621"/>
   </g>
   <g transform="matrix(1.9787 0 0 1.7949 -63.796 -73.33)">
    <path d="m68.535 77.656v2l1.1012-1.0002z" fill="#c87a1e"/>
    <path d="m68.535 77.656v2l-1.1012-1.0002z" fill="#a9671a"/>
   </g>
   <g transform="matrix(1.9787 0 0 1.7949 -68.154 -73.33)">
    <path d="m68.535 77.656v2l1.1012-1.0002z" fill="#a9671a"/>
    <path d="m68.535 77.656v2l-1.1012-1.0002z" fill="#c87a1e"/>
   </g>
   <g transform="matrix(1.9787 0 0 1.7949 -70.916 -70.425)">
    <path d="m67.729 78.037v2l1.1012-1.0002z" fill="#a9671a"/>
    <path d="m67.729 78.037v2l-1.1012-1.0002z" fill="#a7a7a7"/>
   </g>
   <g transform="matrix(1.9787 0 0 1.7949 -59.438 -69.741)">
    <path d="m68.535 77.656v2l1.1012-1.0002z" fill="#a7a7a7"/>
    <path d="m68.535 77.656v2l-1.1012-1.0002z" fill="#a9671a"/>
   </g>
   <g transform="matrix(1.9787 0 0 1.7949 -70.333 -71.536)">
    <path d="m68.535 77.656v2l1.1012-1.0002z" fill="#db8621"/>
    <path d="m68.535 77.656v2l-1.1012-1.0002z" fill="#a9671a"/>
   </g>
   <g transform="matrix(1.9787 0 0 1.7949 -61.617 -71.536)">
    <path d="m68.535 77.656v2l1.1012-1.0002z" fill="#a9671a"/>
    <path d="m68.535 77.656v2l-1.1012-1.0002z" fill="#db8621"/>
   </g>
   <g transform="matrix(1.9787 0 0 1.7949 -59.438 -73.331)" fill="#c87a1e">
    <path d="m68.535 77.656v2l-1.1012-1.0002z"/>
    <path d="m61.928 77.657v2l1.1012-1.0002z"/>
   </g>
   <g transform="matrix(1.9787 0 0 1.7949 -70.333 -67.946)">
    <path d="m68.535 77.656v2l1.1012-1.0002z" fill="#c87a1e" opacity="1"/>
    <path d="m68.535 77.656v2l-1.1012-1.0002z" fill="#db8621"/>
   </g>
   <g transform="matrix(1.9787 0 0 1.7949 -61.617 -67.946)">
    <path d="m68.535 77.656v2l1.1012-1.0002z" fill="#db8621"/>
    <path d="m68.535 77.656v2l-1.1012-1.0002z" fill="#c87a1e" opacity="1"/>
   </g>
   <g>
    <path d="m65.275 71.441 2.1789 1.7946-0.0029-1.7946z" fill="#404040" opacity=".8"/>
    <path d="m73.991 71.441-2.1789 1.7946 0.0029-1.7946z" fill="#404040" opacity=".8"/>
    <path d="m65.275 75.031 2.1789 1.7946-2.1789-2e-6z" fill="#ddd"/>
    <path d="m73.991 75.031-2.1789 1.7946 2.1789-2e-6z" fill="#ddd"/>
    <path d="m76.17 73.236-2.1789 1.7946 2.1789-2e-6z" fill="#c87a1e"/>
    <path d="m63.096 73.236 2.1789 1.7946-2.1789-2e-6z" fill="#c87a1e"/>
   </g>
   <g fill="#ddd">
    <path d="m63.096 75.031 2.1789 1.7953v-1.7946z"/>
    <path d="m65.275 76.825 2.1789 1.7953v-1.7946z"/>
    <path d="m76.17 75.03-2.1789 1.7953v-1.7946z"/>
    <path d="m73.991 76.825-2.1789 1.7953v-1.7946z"/>
   </g>
   <path d="m67.454 76.825 7e-6 1.7953h2.1789z" fill="#a7a7a7"/>
   <path d="m71.812 76.825-7e-6 1.7953h-2.1789z" fill="#a7a7a7"/>
   <g fill="#ddd">
    <path d="m78.349 73.235-2.1789 1.7953v-1.7946z"/>
    <path d="m60.917 73.235 2.1789 1.7953v-1.7946z"/>
    <path d="m76.17 73.236 2.1789-6.83e-4 -9e-6 -1.7946z"/>
    <path d="m63.096 73.236-2.1789-6.83e-4 1e-5 -1.7946z"/>
   </g>
  </g>
 </g>
</svg>
