<svg viewBox="0 0 25.689 25.689" xmlns="http://www.w3.org/2000/svg">
  <title>
    vulpis web development logo in green circle
  </title>
  <g transform="translate(-56.788 -57.7)" opacity=".999">
    <circle transform="translate(28.972 56.792)" cx="40.661" cy="13.753" r="12.844" fill="#2c4e3e" fill-opacity=".988" fill-rule="evenodd" opacity=".8"/>
    <path d="M69.635 75.029v3.59l2.18-1.796zM69.635 75.029v3.59l-2.179-1.796z" fill="#404040"/>
    <g fill="#a9671a">
      <path d="M69.635 75.029v1.794h2.18z"/>
      <path d="M71.814 75.029v1.794h-2.18z"/>
      <path d="M69.635 75.029v1.794h-2.179z"/>
    </g>
    <path d="M67.456 73.234v3.59l2.18-1.796z" fill="#db8621"/>
    <path d="M67.456 73.234v3.59l-2.179-1.796zM71.814 73.234v3.59l2.18-1.796z" fill="#c87a1e"/>
    <path d="M71.814 73.234v3.59l-2.179-1.796z" fill="#db8621"/>
    <path d="M69.633 71.441v3.59l2.179-1.795zM69.633 71.441v3.59l-2.179-1.795z" fill="#c87a1e"/>
    <path d="M73.993 64.259v3.59l2.18-1.796z" fill="#ddd"/>
    <path d="M73.993 64.259v3.59l-2.179-1.796zM65.277 64.26v3.59l2.18-1.796z" fill="#c87a1e"/>
    <path d="M65.277 64.26v3.59l-2.179-1.796z" fill="#ddd"/>
    <path d="M63.098 62.465v3.59l2.18-1.796zM76.17 62.465v3.59l-2.18-1.796z" fill="#424242"/>
    <g fill="#db8621">
      <path d="M69.635 67.849v3.59l2.18-1.796zM69.635 67.849v3.59l-2.179-1.796z"/>
    </g>
    <path d="M67.456 69.644v3.59l2.18-1.796z" fill="#db8621"/>
    <path d="M67.456 69.644v3.59l-2.179-1.796zM71.814 69.644v3.59l2.18-1.796z" fill="#a9671a"/>
    <path d="M71.814 69.644v3.59l-2.179-1.796z" fill="#db8621"/>
    <path d="M71.814 66.055v3.59l2.18-1.796z" fill="#c87a1e"/>
    <path d="M71.814 66.055v3.59l-2.179-1.796z" fill="#a9671a"/>
    <path d="M67.456 66.055v3.59l2.18-1.796z" fill="#a9671a"/>
    <path d="M67.456 66.055v3.59l-2.179-1.796z" fill="#c87a1e"/>
    <path d="M63.1 69.644v3.59l2.178-1.796z" fill="#a9671a"/>
    <path d="M63.1 69.644v3.59l-2.18-1.796zM76.172 69.644v3.59l2.18-1.796z" fill="#a7a7a7"/>
    <path d="M76.172 69.644v3.59l-2.179-1.796z" fill="#a9671a"/>
    <path d="M65.277 67.849v3.59l2.18-1.796z" fill="#db8621"/>
    <path d="M65.277 67.849v3.59l-2.179-1.796zM73.993 67.849v3.59l2.18-1.796z" fill="#a9671a"/>
    <path d="M73.993 67.849v3.59l-2.179-1.796z" fill="#db8621"/>
    <g fill="#c87a1e">
      <path d="M76.172 66.054v3.59l-2.179-1.796zM63.099 66.056v3.59l2.179-1.796z"/>
    </g>
    <path d="M65.277 71.439v3.59l2.18-1.796z" fill="#c87a1e"/>
    <path d="M65.277 71.439v3.59l-2.179-1.796zM73.993 71.439v3.59l2.18-1.796z" fill="#db8621"/>
    <path d="M73.993 71.439v3.59l-2.179-1.796z" fill="#c87a1e"/>
    <path d="M65.275 71.441l2.179 1.795-.003-1.795zM73.991 71.441l-2.179 1.795.003-1.795z" fill="#404040" opacity=".8"/>
    <path d="M65.275 75.031l2.179 1.795h-2.179zM73.991 75.031l-2.179 1.795h2.179z" fill="#ddd"/>
    <path d="M76.17 73.236l-2.179 1.795h2.179zM63.096 73.236l2.179 1.795h-2.179z" fill="#c87a1e"/>
    <g fill="#ddd">
      <path d="M63.096 75.031l2.179 1.795v-1.794zM65.275 76.825l2.179 1.795v-1.794zM76.17 75.03l-2.179 1.795v-1.794zM73.991 76.825l-2.179 1.795v-1.794z"/>
    </g>
    <path d="M67.454 76.825v1.795h2.179zM71.812 76.825v1.795h-2.179z" fill="#a7a7a7"/>
    <g fill="#ddd">
      <path d="M78.349 73.235L76.17 75.03v-1.794zM60.917 73.235l2.179 1.795v-1.794z"/>
      <path d="M76.17 73.236h2.179V71.44zM63.096 73.236h-2.179V71.44z"/>
    </g>
    <path d="M69.635 75.029v3.59l2.18-1.796zM69.635 75.029v3.59l-2.179-1.796z" fill="#404040"/>
    <g fill="#a9671a">
      <path d="M69.635 75.029v1.794h2.18z"/>
      <path d="M71.814 75.029v1.794h-2.18z"/>
      <path d="M69.635 75.029v1.794h-2.179zM69.635 75.029v1.794h2.18z"/>
      <path d="M69.635 75.029v1.794h-2.179z"/>
    </g>
    <path d="M67.456 73.234v3.59l2.18-1.796z" fill="#db8621"/>
    <path d="M67.456 73.234v3.59l-2.179-1.796z" fill="#c87a1e"/>
    <g>
      <path d="M71.814 73.234v3.59l2.18-1.796z" fill="#c87a1e"/>
      <path d="M71.814 73.234v3.59l-2.179-1.796z" fill="#db8621"/>
    </g>
    <path d="M69.633 71.441v3.59l2.179-1.795zM69.633 71.441v3.59l-2.179-1.795z" fill="#c87a1e"/>
    <g>
      <path d="M73.993 64.259v3.59l2.18-1.796z" fill="#ddd"/>
      <path d="M73.993 64.259v3.59l-2.179-1.796z" fill="#c87a1e"/>
    </g>
    <g>
      <path d="M65.277 64.26v3.59l2.18-1.796z" fill="#c87a1e"/>
      <path d="M65.277 64.26v3.59l-2.179-1.796z" fill="#ddd"/>
    </g>
    <g fill="#424242">
      <path d="M63.098 62.465v3.59l2.18-1.796z"/>
    </g>
    <g fill="#424242">
      <path d="M76.17 62.465v3.59l-2.18-1.796z"/>
    </g>
    <g fill="#db8621">
      <path d="M69.635 67.849v3.59l2.18-1.796zM69.635 67.849v3.59l-2.179-1.796z"/>
    </g>
    <g>
      <path d="M67.456 69.644v3.59l2.18-1.796z" fill="#db8621"/>
      <path d="M67.456 69.644v3.59l-2.179-1.796z" fill="#a9671a"/>
    </g>
    <g>
      <path d="M71.814 69.644v3.59l2.18-1.796z" fill="#a9671a"/>
      <path d="M71.814 69.644v3.59l-2.179-1.796z" fill="#db8621"/>
    </g>
    <g>
      <path d="M71.814 66.055v3.59l2.18-1.796z" fill="#c87a1e"/>
      <path d="M71.814 66.055v3.59l-2.179-1.796z" fill="#a9671a"/>
    </g>
    <g>
      <path d="M67.456 66.055v3.59l2.18-1.796z" fill="#a9671a"/>
      <path d="M67.456 66.055v3.59l-2.179-1.796z" fill="#c87a1e"/>
    </g>
    <g>
      <path d="M63.1 69.644v3.59l2.178-1.796z" fill="#a9671a"/>
      <path d="M63.1 69.644v3.59l-2.18-1.796z" fill="#a7a7a7"/>
    </g>
    <g>
      <path d="M76.172 69.644v3.59l2.18-1.796z" fill="#a7a7a7"/>
      <path d="M76.172 69.644v3.59l-2.179-1.796z" fill="#a9671a"/>
    </g>
    <g>
      <path d="M65.277 67.849v3.59l2.18-1.796z" fill="#db8621"/>
      <path d="M65.277 67.849v3.59l-2.179-1.796z" fill="#a9671a"/>
    </g>
    <g>
      <path d="M73.993 67.849v3.59l2.18-1.796z" fill="#a9671a"/>
      <path d="M73.993 67.849v3.59l-2.179-1.796z" fill="#db8621"/>
    </g>
    <g fill="#c87a1e">
      <path d="M76.172 66.054v3.59l-2.179-1.796zM63.099 66.056v3.59l2.179-1.796z"/>
    </g>
    <g>
      <path d="M65.277 71.439v3.59l2.18-1.796z" fill="#c87a1e"/>
      <path d="M65.277 71.439v3.59l-2.179-1.796z" fill="#db8621"/>
    </g>
    <g>
      <path d="M73.993 71.439v3.59l2.18-1.796z" fill="#db8621"/>
      <path d="M73.993 71.439v3.59l-2.179-1.796z" fill="#c87a1e"/>
    </g>
    <g>
      <path d="M65.275 71.441l2.179 1.795-.003-1.795zM73.991 71.441l-2.179 1.795.003-1.795z" fill="#404040" opacity=".8"/>
      <path d="M65.275 75.031l2.179 1.795h-2.179zM73.991 75.031l-2.179 1.795h2.179z" fill="#ddd"/>
      <path d="M76.17 73.236l-2.179 1.795h2.179zM63.096 73.236l2.179 1.795h-2.179z" fill="#c87a1e"/>
    </g>
    <g fill="#ddd">
      <path d="M63.096 75.031l2.179 1.795v-1.794zM65.275 76.825l2.179 1.795v-1.794zM76.17 75.03l-2.179 1.795v-1.794zM73.991 76.825l-2.179 1.795v-1.794z"/>
    </g>
    <path d="M67.454 76.825v1.795h2.179zM71.812 76.825v1.795h-2.179z" fill="#a7a7a7"/>
    <g fill="#ddd">
      <path d="M78.349 73.235L76.17 75.03v-1.794zM60.917 73.235l2.179 1.795v-1.794z"/>
      <path d="M76.17 73.236h2.179V71.44zM63.096 73.236h-2.179V71.44z"/>
    </g>
  </g>
</svg>
